<svg width="255" height="255" xmlns="http://www.w3.org/2000/svg"><g fill-rule="nonzero" fill="none"><path fill="#FFF" d="M18.016 154.222V99.719H8.6v-9.704H40.23v9.704h-9.25v54.503H18.017zM226.614 154.222V99.719H217.2v-9.704h31.629v9.704h-9.415v54.503h-12.8zM105.716 69.783l13.956-64.206h11.48l13.831 64.165H132.06l-2.642-13.709h-8.258l-2.478 13.709h-12.965v.041zm16.269-21.719h6.647L125.37 24.24l-3.385 23.824zM.844 246.925L246.884.885l7.387 7.387-246.04 246.04z"/><path fill="#FFF" d="M.844 8.23L8.23.845l246.04 246.04-7.387 7.387z"/><path fill="#F39C12" d="M80.281 221.03v-6.277l21.802-13.502 3.881 6.111-18.044 10.53 18.044 10.28-4.129 6.36zM118.31 241.592l-6.896-3.18 23.37-48.515 6.896 3.179zM172.73 214.712v6.359l-21.677 13.42-4.129-6.07 18.044-10.57-18.044-10.24 4.129-6.4z"/></g></svg>